# xmcd
#
# Track frame offsets: 
#        150
#        9231
#        21352
#        33175
#        44044
#        55330
#        66842
#        79856
#        95515
#        111472
#
# Disc length: 1676 seconds
#
# Revision: 2
# Processed by: cddbd v1.5.2PL0 Copyright (c) Steve Scherf et al.
# Submitted via: ExactAudioCopyFreeDBPlugin 1.0
#
DISCID=82068a0a
DTITLE=Billie Jo Spears - What I've Got In Mind
DYEAR=1976
DGENRE=Country
TTITLE0=What I've Got In Mind
TTITLE1=Like A Sunflower
TTITLE2=Misty Blue
TTITLE3=Let It Shine
TTITLE4=Let's Try To Wake Up Again
TTITLE5=Do Right Woman, Do Right Man
TTITLE6=Loving You Was All I Ever Needed
TTITLE7=Sing Me An Old Fashoned Song
TTITLE8=Love Let Me Down
TTITLE9=Husbands And Wives
EXTD=
EXTT0=
EXTT1=
EXTT2=
EXTT3=
EXTT4=
EXTT5=
EXTT6=
EXTT7=
EXTT8=
EXTT9=
PLAYORDER=
